<svg width="3154" height="3487" xmlns="http://www.w3.org/2000/svg" xmlns:xlink="http://www.w3.org/1999/xlink" xml:space="preserve" overflow="hidden"><defs><filter id="fx0" x="-10%" y="-10%" width="120%" height="120%" filterUnits="userSpaceOnUse" primitiveUnits="userSpaceOnUse"><feComponentTransfer color-interpolation-filters="sRGB"><feFuncR type="discrete" tableValues="1.000000 1.000000"/><feFuncG type="discrete" tableValues="1.000000 1.000000"/><feFuncB type="discrete" tableValues="1.000000 1.000000"/><feFuncA type="linear" slope="1.000000" intercept="0.000000"/></feComponentTransfer><feGaussianBlur stdDeviation="15.797174 15.754039"/></filter></defs><g transform="translate(-462 449)"><g><path d="M1195 566.506C1195 411.034 1321.03 285 1476.51 285L2602.49 285C2757.97 285 2884 411.034 2884 566.506L2884 1692.49C2884 1847.97 2757.97 1974 2602.49 1974L1476.51 1974C1321.03 1974 1195 1847.97 1195 1692.49Z" fill="#000000" fill-rule="evenodd" fill-opacity="1"/><g filter="url(#fx0)" transform="matrix(11.981 0 0 12.0138 464 -445)"><g><g transform="matrix(1 0 0 1 3.57628e-07 3.36021e-06)"><path d="M27.375-770.88 27.375-752.265C75.555-752.265 90.885-687.66 90.885-619.77L90.885-150.015C90.885-75.555 74.46-18.615 27.375-18.615L27.375 0 343.83 0 343.83-18.615C296.745-18.615 249.66-26.28 249.66-150.015L249.66-378.87 287.985-378.87C287.985-378.87 456.615-383.25 476.325-266.085L494.94-266.085 494.94-512.46 476.325-512.46C456.615-395.295 287.985-399.675 287.985-399.675L249.66-399.675 249.66-752.265 287.985-752.265C287.985-752.265 584.73-762.12 623.055-562.83L641.67-562.83 641.67-770.88Z" fill="#FFFFFF" fill-rule="nonzero" fill-opacity="1" transform="matrix(0.0851349 0 0 0.0849024 103.429 162)"/></g></g></g><text fill="#FFFFFF" fill-opacity="1" font-family="Butler,Butler_MSFontService,sans-serif" font-style="normal" font-variant="normal" font-weight="700" font-stretch="normal" font-size="1095" text-anchor="start" direction="ltr" writing-mode="lr-tb" unicode-bidi="normal" text-decoration="none" transform="matrix(1 0 0 1 1709.77 1499)">F</text></g></g></svg>